<svg width="909" height="400" viewBox="0 0 909 400" fill="none" xmlns="http://www.w3.org/2000/svg">
<rect x="262.5" y="7.5" width="385" height="385" rx="74.5" fill="#FFFFC5" stroke="black" stroke-width="15"/>
<path d="M525.065 121L479.565 246C474.899 259.167 469.815 269.667 464.315 277.5C458.815 285.333 452.315 291 444.815 294.5C437.315 298 428.315 299.75 417.815 299.75C410.815 299.75 404.399 299 398.565 297.5C392.732 296 387.649 293.917 383.315 291.25L391.815 262.5C394.815 264.667 397.982 266.167 401.315 267C404.649 268 408.899 268.5 414.065 268.5C418.899 268.5 422.815 267.667 425.815 266C428.982 264.333 431.482 261.167 433.315 256.5L436.565 248.75L422.065 214.75L384.565 121H431.315L450.565 192.25L456.565 218.75L463.565 191.25L482.815 121H525.065Z" fill="black"/>
</svg>
