<svg width="921" height="325" viewBox="0 0 921 325" fill="none" xmlns="http://www.w3.org/2000/svg">
<rect x="10" y="10" width="901" height="305" rx="25" fill="#FFFFC5" stroke="black" stroke-width="20"/>
<path d="M175.741 132L142.981 222C139.621 231.48 135.961 239.04 132.001 244.68C128.041 250.32 123.361 254.4 117.961 256.92C112.561 259.44 106.081 260.7 98.5207 260.7C93.4807 260.7 88.8607 260.16 84.6607 259.08C80.4607 258 76.8007 256.5 73.6807 254.58L79.8007 233.88C81.9607 235.44 84.2407 236.52 86.6407 237.12C89.0407 237.84 92.1007 238.2 95.8207 238.2C99.3007 238.2 102.121 237.6 104.281 236.4C106.561 235.2 108.361 232.92 109.681 229.56L112.021 223.98L101.581 199.5L74.5807 132H108.241L122.101 183.3L126.421 202.38L131.461 182.58L145.321 132H175.741ZM228.964 223.8C219.004 223.8 210.364 221.94 203.044 218.22C195.844 214.5 190.264 209.16 186.304 202.2C182.344 195.24 180.364 186.84 180.364 177C180.364 167.16 182.344 158.76 186.304 151.8C190.264 144.84 195.784 139.5 202.864 135.78C210.064 132.06 218.284 130.2 227.524 130.2C237.004 130.2 245.044 132.06 251.644 135.78C258.364 139.38 263.464 144.42 266.944 150.9C270.424 157.26 272.164 164.58 272.164 172.86C272.164 175.02 272.104 177.18 271.984 179.34C271.864 181.5 271.684 183.3 271.444 184.74H200.164V168.36H257.944L243.364 173.94C243.364 166.74 242.044 161.22 239.404 157.38C236.884 153.54 232.924 151.62 227.524 151.62C223.684 151.62 220.384 152.52 217.624 154.32C214.984 156.12 212.944 158.94 211.504 162.78C210.184 166.62 209.524 171.54 209.524 177.54C209.524 183.42 210.304 188.22 211.864 191.94C213.424 195.54 215.644 198.18 218.524 199.86C221.404 201.42 224.884 202.2 228.964 202.2C233.524 202.2 237.124 201.3 239.764 199.5C242.524 197.7 244.564 195.18 245.884 191.94L270.364 200.04C268.684 205.2 265.744 209.58 261.544 213.18C257.464 216.66 252.544 219.3 246.784 221.1C241.144 222.9 235.204 223.8 228.964 223.8ZM319.523 93.84V191.4C319.523 195.36 320.183 198.18 321.503 199.86C322.823 201.54 325.043 202.38 328.163 202.38C329.963 202.38 331.463 202.26 332.663 202.02C333.863 201.78 335.303 201.42 336.983 200.94L335.003 219.3C332.843 220.62 330.023 221.7 326.543 222.54C323.063 223.38 319.643 223.8 316.283 223.8C306.683 223.8 299.723 221.58 295.403 217.14C291.083 212.7 288.923 205.44 288.923 195.36V93.84H319.523ZM378.409 93.84V191.4C378.409 195.36 379.069 198.18 380.389 199.86C381.709 201.54 383.929 202.38 387.049 202.38C388.849 202.38 390.349 202.26 391.549 202.02C392.749 201.78 394.189 201.42 395.869 200.94L393.889 219.3C391.729 220.62 388.909 221.7 385.429 222.54C381.949 223.38 378.529 223.8 375.169 223.8C365.569 223.8 358.609 221.58 354.289 217.14C349.969 212.7 347.809 205.44 347.809 195.36V93.84H378.409ZM449.896 130.2C459.376 130.2 467.656 132.06 474.736 135.78C481.936 139.38 487.516 144.72 491.476 151.8C495.556 158.76 497.596 167.16 497.596 177C497.596 186.84 495.556 195.3 491.476 202.38C487.516 209.34 481.936 214.68 474.736 218.4C467.656 222 459.376 223.8 449.896 223.8C440.656 223.8 432.436 222 425.236 218.4C418.036 214.68 412.396 209.34 408.316 202.38C404.356 195.3 402.376 186.84 402.376 177C402.376 167.16 404.356 158.76 408.316 151.8C412.396 144.72 418.036 139.38 425.236 135.78C432.436 132.06 440.656 130.2 449.896 130.2ZM449.896 151.98C446.416 151.98 443.416 152.82 440.896 154.5C438.376 156.18 436.456 158.88 435.136 162.6C433.816 166.32 433.156 171.12 433.156 177C433.156 182.88 433.816 187.68 435.136 191.4C436.456 195 438.376 197.7 440.896 199.5C443.416 201.18 446.416 202.02 449.896 202.02C453.496 202.02 456.556 201.18 459.076 199.5C461.596 197.7 463.516 195 464.836 191.4C466.156 187.68 466.816 182.88 466.816 177C466.816 171.12 466.156 166.32 464.836 162.6C463.516 158.88 461.596 156.18 459.076 154.5C456.556 152.82 453.496 151.98 449.896 151.98ZM527.118 191.04C532.758 191.04 537.138 192.48 540.258 195.36C543.498 198.24 545.118 202.26 545.118 207.42C545.118 212.46 543.498 216.42 540.258 219.3C537.138 222.18 532.758 223.62 527.118 223.62C521.598 223.62 517.218 222.18 513.978 219.3C510.738 216.42 509.118 212.46 509.118 207.42C509.118 202.26 510.738 198.24 513.978 195.36C517.218 192.48 521.598 191.04 527.118 191.04ZM621.985 223.8C616.105 223.8 610.885 222.48 606.325 219.84C601.885 217.2 598.225 213.6 595.345 209.04C592.465 204.36 590.605 199.08 589.765 193.2L592.645 189.42L591.025 222H564.205V93.84H594.805V160.26L591.925 155.94C593.605 148.5 597.025 142.38 602.185 137.58C607.345 132.66 614.305 130.2 623.065 130.2C630.025 130.2 636.205 132.06 641.605 135.78C647.125 139.5 651.385 144.9 654.385 151.98C657.505 158.94 659.065 167.4 659.065 177.36C659.065 187.08 657.505 195.42 654.385 202.38C651.265 209.34 646.945 214.68 641.425 218.4C635.905 222 629.425 223.8 621.985 223.8ZM611.365 201.3C616.645 201.3 620.785 199.38 623.785 195.54C626.785 191.58 628.285 185.4 628.285 177C628.285 168.6 626.785 162.48 623.785 158.64C620.785 154.68 616.645 152.7 611.365 152.7C607.885 152.7 604.885 153.72 602.365 155.76C599.965 157.68 598.105 160.44 596.785 164.04C595.465 167.64 594.805 172.02 594.805 177.18C594.805 182.34 595.465 186.72 596.785 190.32C598.105 193.92 600.025 196.68 602.545 198.6C605.065 200.4 608.005 201.3 611.365 201.3ZM726.397 164.94C726.397 160.74 725.197 157.44 722.797 155.04C720.517 152.52 717.397 151.26 713.437 151.26C709.477 151.26 706.057 152.28 703.177 154.32C700.417 156.24 698.497 159.72 697.417 164.76L671.497 158.64C673.177 150 677.617 143.1 684.817 137.94C692.017 132.78 702.157 130.2 715.237 130.2C723.997 130.2 731.437 131.52 737.557 134.16C743.797 136.68 748.537 140.52 751.777 145.68C755.137 150.72 756.817 156.96 756.817 164.4V197.34C756.817 202.02 758.917 204.36 763.117 204.36C765.277 204.36 767.017 204.12 768.337 203.64L766.537 221.1C762.937 222.78 758.557 223.62 753.397 223.62C748.717 223.62 744.577 222.9 740.977 221.46C737.377 219.9 734.557 217.62 732.517 214.62C730.477 211.5 729.457 207.6 729.457 202.92V201.84L732.877 200.58C732.877 205.74 731.317 210.06 728.197 213.54C725.197 217.02 721.237 219.6 716.317 221.28C711.517 222.96 706.477 223.8 701.197 223.8C695.077 223.8 689.737 222.84 685.177 220.92C680.617 219 677.077 216.24 674.557 212.64C672.157 208.92 670.957 204.36 670.957 198.96C670.957 192.48 672.877 187.14 676.717 182.94C680.677 178.62 686.857 175.62 695.257 173.94L729.277 166.92L729.097 183.12L711.817 186.72C708.217 187.44 705.517 188.52 703.717 189.96C702.037 191.28 701.197 193.32 701.197 196.08C701.197 198.72 702.157 200.7 704.077 202.02C705.997 203.34 708.277 204 710.917 204C712.957 204 714.877 203.7 716.677 203.1C718.597 202.5 720.277 201.6 721.717 200.4C723.157 199.08 724.297 197.46 725.137 195.54C725.977 193.62 726.397 191.34 726.397 188.7V164.94ZM780.416 222V132H807.416L808.676 151.44C810.956 144.72 814.316 139.5 818.756 135.78C823.316 132.06 829.076 130.2 836.036 130.2C838.316 130.2 840.236 130.38 841.796 130.74C843.476 131.1 844.796 131.58 845.756 132.18L842.696 157.38C841.496 156.9 839.936 156.54 838.016 156.3C836.216 155.94 833.996 155.76 831.356 155.76C827.756 155.76 824.396 156.54 821.276 158.1C818.156 159.66 815.636 162 813.716 165.12C811.916 168.12 811.016 171.96 811.016 176.64V222H780.416Z" fill="black"/>
</svg>
